<svg width="1481" height="494" viewBox="0 0 1481 494" fill="none" xmlns="http://www.w3.org/2000/svg">
<path d="M674.783 40.9282L638.276 83.7898L621.138 63.1428L673.891 1.03366L727.985 64.5424L711.295 84.137L674.783 40.9282Z" fill="#319795"/>
<path d="M1375.2 102.182C1406.54 102.182 1431.87 112.155 1451.18 132.099C1470.49 151.728 1480.15 179.271 1480.15 214.728V369.063H1413.67V223.751C1413.67 202.856 1408.44 186.869 1397.99 175.788C1387.55 164.391 1373.3 158.693 1355.26 158.693C1336.89 158.693 1322.33 164.391 1311.57 175.788C1301.12 186.869 1295.9 202.856 1295.9 223.751V369.063H1229.41V105.981H1295.9V138.748C1304.76 127.351 1316 118.486 1329.61 112.155C1343.54 105.506 1358.74 102.182 1375.2 102.182Z" fill="#319795"/>
<path d="M1193.58 105.981L1030.69 493.48H959.936L1016.92 362.414L911.499 105.981H986.054L1053.96 289.758L1122.82 105.981H1193.58Z" fill="#1A365D"/>
<path d="M898.807 160.592H852.744V369.062H785.311V160.592H755.394V105.981H785.311V92.6846C785.311 60.393 794.492 36.6492 812.854 21.4532C831.216 6.25717 858.917 -0.865956 895.958 0.0838029V56.1192C879.812 55.8026 868.573 58.4935 862.241 64.1921C855.91 69.8906 852.744 80.1795 852.744 95.059V105.981H898.807V160.592Z" fill="#1A365D"/>
<path d="M704.241 107.881V369.063H644.882V107.881H704.241Z" fill="#1A365D"/>
<path d="M477.852 102.182C509.193 102.182 534.52 112.155 553.832 132.099C573.143 151.728 582.799 179.271 582.799 214.728V369.063H516.316V223.751C516.316 202.856 511.093 186.869 500.646 175.788C490.198 164.391 475.952 158.693 457.907 158.693C439.545 158.693 424.982 164.391 414.218 175.788C403.771 186.869 398.547 202.856 398.547 223.751V369.063H332.065V105.981H398.547V138.748C407.412 127.351 418.65 118.486 432.263 112.155C446.193 105.506 461.389 102.182 477.852 102.182Z" fill="#1A365D"/>
<path d="M66.4826 37.5991V242.746C66.4826 265.223 72.3394 282.477 84.053 294.507C95.7666 306.221 112.229 312.077 133.44 312.077C154.968 312.077 171.589 306.221 183.302 294.507C195.016 282.477 200.873 265.223 200.873 242.746V37.5991H267.83V242.271C267.83 270.447 261.657 294.349 249.31 313.977C237.28 333.289 220.976 347.851 200.398 357.666C180.136 367.48 157.501 372.387 132.49 372.387C107.797 372.387 85.3194 367.48 65.058 357.666C45.1132 347.851 29.284 333.289 17.5704 313.977C5.8568 294.349 0 270.447 0 242.271V37.5991H66.4826Z" fill="#1A365D"/>
</svg>
