<svg width="125" height="42" viewBox="0 0 125 42" fill="none" xmlns="http://www.w3.org/2000/svg">
<path d="M56.8387 3.44748L53.7636 7.05783L52.32 5.31868L56.7636 0.0870667L61.32 5.43657L59.9142 7.08707L56.8387 3.44748Z" fill="#4FD1C5"/>
<path d="M115.837 8.60706C118.477 8.60706 120.61 9.44706 122.237 11.1271C123.863 12.7804 124.677 15.1004 124.677 18.0871V31.0871H119.077V18.8471C119.077 17.0871 118.637 15.7404 117.757 14.8071C116.877 13.8471 115.677 13.3671 114.157 13.3671C112.61 13.3671 111.383 13.8471 110.477 14.8071C109.597 15.7404 109.157 17.0871 109.157 18.8471V31.0871H103.557V8.92706H109.157V11.6871C109.903 10.7271 110.85 9.9804 111.997 9.44707C113.17 8.88706 114.45 8.60706 115.837 8.60706Z" fill="#4FD1C5"/>
<path d="M100.538 8.92706L86.8178 41.5671H80.8578L85.6578 30.5271L76.7778 8.92706H83.0578L88.7778 24.4071L94.5778 8.92706H100.538Z" fill="white"/>
<path d="M75.7088 13.5271H71.8288V31.0871H66.1488V13.5271H63.6288V8.92707H66.1488V7.80707C66.1488 5.08707 66.9221 3.08706 68.4688 1.80706C70.0154 0.527065 72.3488 -0.072934 75.4688 0.00706656V4.72707C74.1088 4.7004 73.1621 4.92707 72.6288 5.40707C72.0954 5.88707 71.8288 6.75373 71.8288 8.00706V8.92707H75.7088V13.5271Z" fill="white"/>
<path d="M59.32 9.08707V31.0871H54.32V9.08707H59.32Z" fill="white"/>
<path d="M40.2506 8.60706C42.8906 8.60706 45.024 9.44706 46.6506 11.1271C48.2773 12.7804 49.0906 15.1004 49.0906 18.0871V31.0871H43.4906V18.8471C43.4906 17.0871 43.0506 15.7404 42.1706 14.8071C41.2906 13.8471 40.0906 13.3671 38.5706 13.3671C37.024 13.3671 35.7973 13.8471 34.8906 14.8071C34.0106 15.7404 33.5706 17.0871 33.5706 18.8471V31.0871H27.9706V8.92706H33.5706V11.6871C34.3173 10.7271 35.264 9.9804 36.4106 9.44707C37.584 8.88706 38.864 8.60706 40.2506 8.60706Z" fill="white"/>
<path d="M5.6 3.16707V20.4471C5.6 22.3404 6.09333 23.7937 7.08 24.8071C8.06667 25.7937 9.45333 26.2871 11.24 26.2871C13.0533 26.2871 14.4533 25.7937 15.44 24.8071C16.4267 23.7937 16.92 22.3404 16.92 20.4471V3.16707H22.56V20.4071C22.56 22.7804 22.04 24.7937 21 26.4471C19.9867 28.0737 18.6133 29.3004 16.88 30.1271C15.1733 30.9537 13.2667 31.3671 11.16 31.3671C9.08 31.3671 7.18667 30.9537 5.48 30.1271C3.8 29.3004 2.46667 28.0737 1.48 26.4471C0.493333 24.7937 0 22.7804 0 20.4071V3.16707H5.6Z" fill="white"/>
</svg>
