<svg width="48" height="48" viewBox="0 0 48 48" fill="none" xmlns="http://www.w3.org/2000/svg">
<rect width="48" height="48" fill="white"/>
<path d="M18.461 11V28.1574C18.461 30.0374 18.9421 31.4804 19.9043 32.4865C20.8664 33.4662 22.2187 33.956 23.961 33.956C25.7293 33.956 27.0946 33.4662 28.0567 32.4865C29.0189 31.4804 29.5 30.0374 29.5 28.1574V11H35V28.1177C35 30.4742 34.4929 32.4733 33.4787 34.1149C32.4905 35.73 31.1513 36.948 29.461 37.7688C27.7967 38.5896 25.9374 39 23.883 39C21.8546 39 20.0083 38.5896 18.344 37.7688C16.7057 36.948 15.4054 35.73 14.4433 34.1149C13.4811 32.4733 13 30.4742 13 28.1177V11H18.461Z" fill="#1A365D"/>
<path d="M32.0208 6.84047L28.604 10.9666L27 8.97898L31.9373 3L37 9.11372L35.438 11L32.0208 6.84047Z" fill="#319795"/>
</svg>
